<svg width="26" height="24" viewBox="0 0 26 24" fill="none" xmlns="http://www.w3.org/2000/svg">
<path d="M8.43805 2.12264C8.43805 1.3477 9.0652 0.719238 9.84146 0.719238H15.4551C16.2314 0.719238 16.8585 1.3477 16.8585 2.12264V3.52605H18.9637C20.1259 3.52605 21.0688 4.46852 21.0688 5.63115V11.2448L23.016 11.8938C24.0335 12.2315 24.3098 13.5385 23.5204 14.2577L19.0908 18.3232C18.3804 18.731 17.569 18.9854 16.8585 18.9854C15.9989 18.9854 15.0692 18.6477 14.2622 18.0907C13.2974 17.411 12.0036 17.411 11.0344 18.0907C10.28 18.6083 9.36781 18.9854 8.43805 18.9854C7.72757 18.9854 6.91622 18.731 6.20574 18.3188L1.77577 14.2577C0.986791 13.5385 1.26528 12.2315 2.28013 11.8938L4.2278 11.2053V5.59168C4.2278 4.46852 5.17072 3.48658 6.33292 3.48658H8.43805V2.12264ZM7.03463 10.3106L11.7624 8.7318C12.3369 8.54321 12.9597 8.54321 13.5342 8.7318L18.262 10.3106V6.33285H7.03463V10.3106ZM16.8585 20.3669C18.0383 20.3669 19.2882 19.8932 20.253 19.2222H20.2574C20.7793 18.8495 21.4854 18.8802 21.9766 19.2968C22.6038 19.8187 23.402 20.2178 24.1958 20.402C24.9501 20.5774 25.4194 21.3361 25.2439 22.0904C25.0685 22.8448 24.2747 23.314 23.5555 23.1386C22.481 22.8842 21.5907 22.4106 21.003 22.0422C19.7312 22.722 18.3058 23.1737 16.8585 23.1737C15.4595 23.1737 14.2008 22.7395 13.3325 22.3448C13.0737 22.2308 12.8456 22.1124 12.6483 22.0071C12.4509 22.1124 12.2229 22.2308 11.9641 22.3448C11.0958 22.7395 9.83708 23.1737 8.43805 23.1737C6.9513 23.1737 5.56543 22.722 4.29359 22.0422C3.70678 22.4106 2.81518 22.8842 1.73981 23.1386C0.985037 23.314 0.230394 22.8448 0.0544847 22.0904C-0.121425 21.3361 0.347886 20.5774 1.10257 20.402C1.89638 20.2178 2.69106 19.8187 3.32041 19.2968C3.80941 18.8802 4.51726 18.8495 5.03915 19.2222H5.04354C6.01277 19.8932 7.2583 20.3669 8.43805 20.3669C9.64411 20.3669 10.8502 19.902 11.8369 19.2222C12.3238 18.8758 12.9728 18.8758 13.4596 19.2222C14.4069 19.902 15.6525 20.3669 16.8585 20.3669Z" fill="white"/>
</svg>
