<svg width="394" height="394" viewBox="0 0 394 394" fill="none" xmlns="http://www.w3.org/2000/svg">
<path d="M392 197C392 222.608 386.956 247.965 377.157 271.623C367.357 295.282 352.993 316.778 334.886 334.886C316.778 352.993 295.282 367.357 271.623 377.157C247.965 386.956 222.608 392 197 392C171.392 392 146.035 386.956 122.377 377.157C98.7182 367.357 77.2216 352.993 59.1142 334.886C41.0067 316.778 26.6432 295.282 16.8435 271.623C7.04382 247.965 2 222.608 2 197C2 171.392 7.04383 146.035 16.8435 122.377C26.6432 98.7182 41.0068 77.2216 59.1142 59.1142C77.2216 41.0067 98.7183 26.6431 122.377 16.8435C146.035 7.04382 171.392 2 197 2C222.608 2 247.965 7.04383 271.623 16.8435C295.282 26.6432 316.778 41.0068 334.886 59.1142C352.993 77.2216 367.357 98.7183 377.157 122.377C386.956 146.035 392 171.392 392 197L392 197Z" stroke="#F30000" stroke-width="4"/>
</svg>
